<svg xmlns="http://www.w3.org/2000/svg" width="330" height="48.697" viewBox="0 0 330 48.697">
    <g transform="translate(-5084 173.542)">
        <path
            d="M48.287,13.847,34.855.416a1.42,1.42,0,0,0-1-.416H14.857a1.411,1.411,0,0,0-1,.416L.416,13.847a1.42,1.42,0,0,0-.416,1V33.846a1.411,1.411,0,0,0,.416,1L13.847,48.282a1.42,1.42,0,0,0,1,.416H33.846a1.411,1.411,0,0,0,1-.416L48.282,34.85a1.42,1.42,0,0,0,.416-1V14.857a1.411,1.411,0,0,0-.416-1ZM42.363,18.43,37.038,5.582l9.086,9.086ZM35.068,45.015V28.748L41.616,22.2l4.766,11.5L35.073,45.015Zm8.181-24.448,3.321-3.321V28.585Zm-8.181,5.162V6.4L40.73,20.068l-5.662,5.662ZM30.956,5.582,14.332,45.708,2.578,33.955ZM2.138,31.376V15.381L29.446,4.068ZM5.622,11.625l9.527-9.532H28.625l-23,9.532ZM32.93,30.886V46.569l-15.644-.04ZM17.752,43.041,32.93,6.4V27.862Z"
            transform="translate(5084 -173.542)" fill="#000"></path>
        <path d="M168.485,22.33V49.787h-1.747l-20.875-24v24H143.74V22.33h1.8l20.825,24v-24Z"
            transform="translate(5011.396 -184.821)" fill="#000"></path>
        <path
            d="M232.485,22.33V24.1H219.633V35.083h12.521V36.87H219.633V48.015H232.8v1.767H217.51V22.33Z"
            transform="translate(4974.134 -184.821)" fill="#000"></path>
        <path
            d="M282.505,26.883,273.3,50.054h-.574L261.68,22.32h2.178l9.091,22.78,9.215-22.78h.658l9.17,22.78,9.116-22.78h2.177L292.215,50.054H291.7l-9.2-23.171Z"
            transform="translate(4951.824 -184.815)" fill="#000"></path>
        <path d="M376.989,22.33V24.1H364.983V34.534h10.828V36.3H364.983V49.782H362.86V22.33Z"
            transform="translate(4900.717 -184.821)" fill="#000"></path>
        <path
            d="M421.655,21.61a14.3,14.3,0,0,1,10.328,4.1,13.389,13.389,0,0,1,4.236,10,13.31,13.31,0,0,1-4.236,9.972,15.016,15.016,0,0,1-20.617,0A13.384,13.384,0,0,1,407.15,35.7a13.446,13.446,0,0,1,4.216-10A14.208,14.208,0,0,1,421.655,21.61Zm.079,26.2A11.791,11.791,0,0,0,430.39,44.3a11.668,11.668,0,0,0,3.529-8.6,12.016,12.016,0,0,0-12.184-12.13,11.965,11.965,0,0,0-8.715,3.509,11.614,11.614,0,0,0-3.568,8.621,11.551,11.551,0,0,0,3.568,8.6A11.95,11.95,0,0,0,421.734,47.81Z"
            transform="translate(4878.345 -184.457)" fill="#000"></path>
        <path
            d="M557.3,35.083,567.732,22.33h2.148V49.787h-2.143V25.433L557.29,38.266,546.8,25.433V49.787H544.68V22.33H546.8Z"
            transform="translate(4808.878 -184.821)" fill="#000"></path>
        <path
            d="M620.519,38.521h0l1.153-2.529.015-.035h0l4.731-10.368,4.553,9.957,3.1,6.78h0l3.41,7.458h2.227L627.017,22.13h-1.163L613.16,49.785h2.227l3.4-7.458h0Z"
            transform="translate(4774.289 -184.72)" fill="#000"></path>
        <path
            d="M501.869,40.3q-2.3-3.541-3.657-4.187,5.226-1.923,5.226-6.681a6.331,6.331,0,0,0-2.341-5.177q-2.338-1.915-6.76-1.915H487.3V49.8h2.123V24.1H493.9a8.735,8.735,0,0,1,5.365,1.415,4.67,4.67,0,0,1,1.866,3.949,4.755,4.755,0,0,1-1.836,3.979,8.642,8.642,0,0,1-5.315,1.405h-1.024V36.86a14.307,14.307,0,0,1,4.088.7,18.37,18.37,0,0,1,3.732,4.711l4.781,7.522h2.514L501.86,40.3Z"
            transform="translate(4837.862 -184.826)" fill="#000"></path>
    </g>
</svg>